# xmcd
#
# Track frame offsets:
#	150
#	20882
#	37177
#
# Disc length: 709 seconds
#
# Revision: 1
# Processed by: cddbd v1.5.2PL0 Copyright (c) Steve Scherf et al.
# Submitted via: EasyCDDAExtractor 11.1.0.1
#
DISCID=2502c303
DTITLE=Garth Brooks - promotion
DYEAR=1900
DGENRE=country
TTITLE0=You move me
TTITLE1=How do you ever gonna know
TTITLE2=In another's eyes
EXTD=
EXTT0=
EXTT1=
EXTT2=
PLAYORDER=
